<?xml version="1.0" encoding="UTF-8" standalone="no"?>
<!-- Created with Inkscape (http://www.inkscape.org/) -->

<svg
   width="165.06909"
   height="92.424904"
   viewBox="0 0 43.674528 24.45409"
   version="1.1"
   id="svg2046"
   inkscape:version="1.2.1 (ef4d3fba62, 2022-07-19, custom)"
   sodipodi:docname="Lavarse_schrift_logo.svg"
   xmlns:inkscape="http://www.inkscape.org/namespaces/inkscape"
   xmlns:sodipodi="http://sodipodi.sourceforge.net/DTD/sodipodi-0.dtd"
   xmlns="http://www.w3.org/2000/svg"
   xmlns:svg="http://www.w3.org/2000/svg">
  <sodipodi:namedview
     id="namedview2048"
     pagecolor="#ffffff"
     bordercolor="#666666"
     borderopacity="1.0"
     inkscape:showpageshadow="2"
     inkscape:pageopacity="0.0"
     inkscape:pagecheckerboard="0"
     inkscape:deskcolor="#d1d1d1"
     inkscape:document-units="mm"
     showgrid="false"
     inkscape:zoom="3.3638608"
     inkscape:cx="103.60119"
     inkscape:cy="55.739524"
     inkscape:window-width="1298"
     inkscape:window-height="704"
     inkscape:window-x="68"
     inkscape:window-y="27"
     inkscape:window-maximized="1"
     inkscape:current-layer="layer1" />
  <defs
     id="defs2043" />
  <g
     inkscape:label="Layer 1"
     inkscape:groupmode="layer"
     id="layer1"
     transform="translate(-109.81839,-141.04434)">
    <path
       id="path2072"
       style="display:inline;fill:#fff895;fill-rule:evenodd;stroke:none;stroke-width:2.22423;stroke-linejoin:round;paint-order:stroke markers fill;fill-opacity:1"
       d="m 130.15974,150.41492 0.001,0.001 m 0,0 0.001,0.001 m 0,0 c 0.0827,0.13279 0.21531,0.23274 0.37802,0.29254 0.10946,0.0402 0.25019,0.0533 0.47002,0.0661 0.2201,0.0127 0.50991,0.0202 0.87235,0.0202 h 0.81768 c 0.86601,0 1.47528,-0.0538 1.85856,-0.18241 0.37178,-0.12448 0.70878,-0.34348 1.00234,-0.64639 0.29359,-0.30295 0.5681,-0.75056 0.84151,-1.34029 h 0.0625 0.0919 l -0.92528,2.68671 h -8.67144 v -0.14643 h 0.42117 c 0.50512,0 0.90498,-0.16168 1.10116,-0.43484 0.19607,-0.27323 0.2335,-0.6502 0.2335,-1.24389 v -6.62647 c 0,-0.3255 -0.0202,-0.59244 -0.0599,-0.8051 -0.0407,-0.21277 -0.0986,-0.37327 -0.27609,-0.55788 -0.17729,-0.1847 -0.54644,-0.30806 -0.99802,-0.30806 l -0.42108,3.1e-4 v -0.14642 l 5.07025,-2.6e-4 v 0.14643 c -0.60348,-0.005 -1.0333,0.04 -1.30454,0.15989 -0.27119,0.1199 -0.4625,0.27283 -0.56824,0.46679 -0.12092,0.22186 -0.14751,0.60166 -0.14751,1.21843 v 6.45231 c 0,0.42764 0.0363,0.72488 0.14822,0.92459 m 9.46336,-6.74471 6.1e-4,2.6e-4 c 0.65835,0 1.18764,0.10195 1.59137,0.29651 0.29696,0.14321 0.51148,0.36113 0.65515,0.67151 0.0789,0.17299 0.13817,0.61878 0.13817,1.28711 v 2.36595 c 0,0.66621 0.0102,1.06322 0.0456,1.24778 v 3.7e-4 3.5e-4 c 0.0314,0.16008 0.0747,0.28386 0.17729,0.37103 l 0.001,0.001 0.001,0.001 c 0.0893,0.0684 0.20188,0.10692 0.31723,0.10692 0.10997,0 0.21504,-0.0228 0.30547,-0.0717 l 10e-4,-8.4e-4 0.001,-8.7e-4 c 0.1045,-0.0594 0.26098,-0.18872 0.44969,-0.35435 v 0.0648 c -0.59558,0.72047 -1.14491,1.05399 -1.62976,1.05399 -0.23732,0 -0.40204,-0.0675 -0.53616,-0.21175 -0.12346,-0.13261 -0.20871,-0.39694 -0.21403,-0.79718 l -10e-4,-0.26803 -0.23123,0.16402 c -0.77747,0.55112 -1.28388,0.87499 -1.44099,0.94316 -0.2794,0.11863 -0.57496,0.17766 -0.89224,0.17766 -0.49175,0 -0.87905,-0.14769 -1.19617,-0.45236 v -2.8e-4 c -0.31021,-0.30318 -0.46654,-0.69738 -0.46654,-1.20924 0,-0.0473 10e-4,-0.0941 0.005,-0.14141 l -0.001,-3e-4 0.0102,-0.0807 c 0.0281,-0.2244 0.0994,-0.41941 0.21377,-0.59035 v -4.7e-4 -3.8e-4 c 0.20924,-0.3181 0.58216,-0.63059 1.12719,-0.92751 v -3.7e-4 c 0.54822,-0.29535 1.47868,-0.66509 2.77972,-1.09984 l 0.0958,-0.0319 v -0.36758 c 0,-0.70893 -0.11481,-1.21375 -0.40037,-1.51722 -0.26771,-0.29042 -0.66756,-0.43459 -1.15583,-0.43459 -0.37442,0 -0.69265,0.0958 -0.92753,0.29349 -0.23302,0.19152 -0.36315,0.43091 -0.36315,0.69222 v 0.001 l 0.0144,0.43997 c 0,0.20972 -0.0568,0.34982 -0.15808,0.44692 l -9.1e-4,0.001 -9.1e-4,10e-4 c -0.10017,0.0998 -0.22061,0.14697 -0.39884,0.14697 -0.16976,0 -0.29051,-0.0477 -0.39782,-0.15379 -0.0989,-0.10323 -0.15325,-0.24567 -0.15325,-0.45059 0,-0.39057 0.212,-0.74994 0.6767,-1.09863 0.4534,-0.34016 1.09944,-0.51752 1.9568,-0.51752 z m 1.30974,2.68973 -0.19935,0.0727 c -0.83618,0.30469 -1.37244,0.51756 -1.63488,0.65412 l -5.9e-4,3.5e-4 c -0.44855,0.22921 -0.77843,0.47162 -0.9851,0.73913 -0.20367,0.2638 -0.30909,0.56032 -0.30909,0.87604 0,0.39177 0.13208,0.73392 0.39409,1.00209 l 6.1e-4,5.7e-4 6.1e-4,5.4e-4 c 0.25916,0.25964 0.5784,0.401 0.92879,0.401 0.48423,0 1.05359,-0.27487 1.75075,-0.79039 l 0.0542,-0.0402 z m 3.76622,4.11058 0.22465,7e-5 v 2.17908 l 0.27297,-0.44839 c 0.35975,-0.59101 0.72211,-1.02885 1.07815,-1.31388 0.3561,-0.28496 0.69962,-0.41681 1.04238,-0.41681 0.31902,0 0.56483,0.0859 0.76667,0.26052 l 8.8e-4,6.4e-4 6e-4,6e-4 c 0.20466,0.17209 0.29572,0.35425 0.29572,0.57402 0,0.19734 -0.0662,0.34971 -0.20694,0.48376 -0.14194,0.13512 -0.29353,0.19479 -0.4856,0.19479 -0.17514,0 -0.39875,-0.0816 -0.66329,-0.2691 -0.28056,-0.20922 -0.4852,-0.33359 -0.69867,-0.33359 -0.16778,0 -0.32276,0.0816 -0.47093,0.21074 -0.30706,0.25707 -0.60725,0.66125 -0.91614,1.21593 l -0.0144,0.0284 v 3.86631 c 0,0.45348 0.0587,0.80483 0.19532,1.0626 0.098,0.18646 0.27014,0.33739 0.49923,0.45206 0.24288,0.12168 0.56648,0.17353 0.97414,0.17353 v 0.18063 h -4.46645 v -0.18063 c 0.45954,0 0.81516,-0.0628 1.06929,-0.21353 0.19151,-0.11227 0.32357,-0.29359 0.39423,-0.51972 0.0253,-0.0774 0.0346,-0.17227 0.0433,-0.31687 0.0102,-0.14518 0.0127,-0.33401 0.0127,-0.5684 v -3.1005 c 0,-0.46678 -0.005,-0.8391 -0.0144,-1.11843 -0.0127,-0.27798 -0.0253,-0.45616 -0.0531,-0.56907 -0.043,-0.19935 -0.13262,-0.36332 -0.28053,-0.46928 -0.13585,-0.10195 -0.30995,-0.15163 -0.50039,-0.15163 -0.17658,0 -0.36599,0.0325 -0.56772,0.092 l -0.0179,-0.0625 z m -5.7738,0.72493 c 0.58456,0 1.05327,0.0906 1.40965,0.26241 0.26117,0.12576 0.44938,0.31693 0.57606,0.59064 0.068,0.14895 0.12169,0.5461 0.12169,1.14047 v 2.10687 c 0,0.59336 0.0102,0.94571 0.0407,1.11361 v 3.2e-4 4e-4 c 0.028,0.14429 0.0667,0.25692 0.16275,0.33856 l 0.001,0.001 0.001,0.001 c 0.082,0.0625 0.18647,0.0986 0.29257,0.0986 0.10017,0 0.19707,-0.0202 0.28053,-0.0658 l 0.001,-8.2e-4 10e-4,-8.4e-4 c 0.0908,-0.0513 0.22113,-0.15845 0.37593,-0.29332 v 0.018 c -0.52748,0.63706 -1.01212,0.92897 -1.43529,0.92897 -0.20771,0 -0.34874,-0.0582 -0.46534,-0.18342 -0.10603,-0.11379 -0.18216,-0.34578 -0.18671,-0.70043 l -10e-4,-0.26809 -0.23124,0.16402 c -0.69213,0.49064 -1.14506,0.77953 -1.28023,0.83811 -0.24667,0.10475 -0.50724,0.15666 -0.78756,0.15666 -0.43436,0 -0.77436,-0.13011 -1.05397,-0.39864 -0.27304,-0.26701 -0.41082,-0.61363 -0.41082,-1.06649 0,-0.28264 0.0678,-0.5179 0.20037,-0.71605 v -4.4e-4 -3.9e-4 c 0.18419,-0.28028 0.51427,-0.55727 0.99817,-0.82088 v -2.6e-4 c 0.48631,-0.26226 1.31442,-0.59143 2.47246,-0.97841 l 0.0958,-0.0319 v -0.33745 c 0,-0.63252 -0.10145,-1.08497 -0.35988,-1.36017 -0.24161,-0.2624 -0.60346,-0.39255 -1.04176,-0.39255 -0.33618,0 -0.62427,0.0866 -0.8367,0.2652 -0.20999,0.17245 -0.32877,0.39032 -0.32877,0.62719 v 10e-4 l 0.0127,0.39165 c 0,0.18416 -0.0494,0.30452 -0.13656,0.38772 l -8.8e-4,0.001 -9.1e-4,0.001 c -0.0863,0.0859 -0.18797,0.12614 -0.3434,0.12614 -0.14714,0 -0.2497,-0.0407 -0.34223,-0.13207 -0.085,-0.0886 -0.13262,-0.2115 -0.13262,-0.39138 0,-0.34282 0.1852,-0.65824 0.59664,-0.96693 0.40011,-0.30018 0.9714,-0.45754 1.73249,-0.45754 h 8.9e-4 z m -2.88037,0.69487 -0.001,0.15916 -0.0102,6e-4 c -0.3138,0.0228 -0.54678,0.0745 -0.70511,0.19785 v 2.4e-4 3.1e-4 c -0.22946,0.18038 -0.4184,0.46252 -0.58474,0.84385 l -2.28788,5.07418 0.15756,0.0409 c 0.0356,0.0102 0.064,0.0144 0.0902,0.0228 0.29156,0.0785 0.47741,0.12168 0.6162,0.12168 0.11163,0 0.21733,-0.0228 0.30104,-0.0826 0.0896,-0.064 0.21327,-0.20973 0.25223,-0.34585 h 0.11418 v 2.4193 h -0.0393 -0.0871 c -0.21782,-0.77234 -0.50723,-1.34496 -0.88378,-1.65035 -0.14123,-0.11608 -0.29895,-0.20922 -0.4703,-0.27986 l -0.13693,-0.0564 -0.39586,0.87802 h -0.15989 l -0.4507,-0.97691 -0.11429,0.0179 c -0.26782,0.0433 -0.50401,0.1396 -0.69609,0.29108 -0.26466,0.20873 -0.41446,0.4619 -0.41446,0.73711 0,0.31429 0.10119,0.59612 0.30128,0.82638 0.20238,0.24464 0.57257,0.4712 1.11664,0.71282 l 1.23431,0.55049 c 0.51113,0.2287 0.89678,0.48811 1.16432,0.77319 l 0.27772,0.29599 -0.0228,-0.38999 c -0.005,-0.10195 -0.0102,-0.20442 -0.0102,-0.30886 0,-1.25656 0.34723,-2.21454 1.03023,-2.89833 0.69372,-0.69395 1.5455,-1.0345 2.59068,-1.0345 0.88206,0 1.58694,0.26192 2.14838,0.79233 v 2.7e-4 2.5e-4 c 0.53063,0.49643 0.80737,1.15158 0.83458,1.98574 h -5.63074 l -6.1e-4,0.13279 c -0.008,1.13253 0.29458,2.04009 0.917,2.70109 0.61479,0.65394 1.35982,0.99356 2.20294,0.99356 0.56069,0 1.05873,-0.14249 1.47595,-0.42644 0.39527,-0.27043 0.7144,-0.7105 0.97602,-1.29732 l 0.0486,0.0289 c -0.13279,0.68643 -0.47297,1.31381 -1.0335,1.88889 -0.57509,0.58464 -1.27783,0.86999 -2.14424,0.86999 -0.94156,0 -1.73477,-0.32804 -2.41234,-1.00167 -0.22568,-0.22822 -0.41239,-0.48358 -0.56213,-0.76569 l -0.18114,-0.34093 -0.092,0.36969 c -0.0984,0.39495 -0.32489,0.72306 -0.69417,0.99756 -0.50693,0.37575 -1.06448,0.55948 -1.69234,0.55948 -0.45625,0 -0.98518,-0.0752 -1.58463,-0.22768 -0.19253,-0.0535 -0.35475,-0.0825 -0.49549,-0.0825 -0.18467,0 -0.38083,0.12902 -0.46264,0.33483 h -0.0568 -0.0634 v -2.5356 h 0.13029 c 0.16222,0.74315 0.48151,1.34447 0.95595,1.73546 0.46766,0.38537 1.00649,0.58471 1.59408,0.58471 0.4171,0 0.77554,-0.11481 1.0464,-0.34589 0.2727,-0.23302 0.41853,-0.52858 0.41853,-0.85762 0,-0.38809 -0.1572,-0.72995 -0.45867,-0.99544 -0.29655,-0.26603 -0.8461,-0.57198 -1.66862,-0.94655 -0.80879,-0.36828 -1.33114,-0.70417 -1.55619,-0.97026 v -3.9e-4 -4.9e-4 c -0.23125,-0.26872 -0.34918,-0.60716 -0.34918,-1.03386 0,-0.55371 0.19937,-1.00058 0.6077,-1.37012 v -3e-4 c 0.29413,-0.26254 0.64401,-0.42886 1.06181,-0.50452 l 0.17586,-0.0319 -2.24988,-4.87697 c -0.12956,-0.29153 -0.25249,-0.50391 -0.38674,-0.6461 -0.12848,-0.14088 -0.29126,-0.25727 -0.48396,-0.34855 -0.13442,-0.0649 -0.35329,-0.11048 -0.64651,-0.15361 6.1e-4,-0.0518 6.1e-4,-0.10386 0,-0.15575 h 3.72263 v 0.1597 h -0.24135 c -0.24844,0 -0.462,0.0573 -0.61612,0.18494 l -10e-4,0.001 -0.001,0.001 c -0.14445,0.12614 -0.21783,0.30403 -0.21783,0.50077 0,0.2115 0.0677,0.44658 0.19381,0.71096 l 1.97547,4.30341 1.98103,-4.45669 v -2.6e-4 c 0.13568,-0.30305 0.20923,-0.53537 0.20923,-0.72372 0,-0.098 -0.0341,-0.19454 -0.10322,-0.26738 -0.0784,-0.0955 -0.18544,-0.16599 -0.30844,-0.20012 -0.14158,-0.0451 -0.33821,-0.0543 -0.64081,-0.0543 v -0.15936 z m 4.06212,1.6641 -0.19985,0.0728 c -0.74564,0.27171 -1.22338,0.46121 -1.45876,0.58382 -0.40043,0.20468 -0.69582,0.42149 -0.88168,0.66218 -0.18316,0.23707 -0.27816,0.50457 -0.27816,0.78853 0,0.3518 0.11914,0.6606 0.35503,0.90212 l 5.9e-4,5.2e-4 6.1e-4,5.4e-4 c 0.23324,0.23352 0.52238,0.36178 0.83887,0.36178 0.43828,0 0.947,-0.24691 1.56901,-0.70699 l 0.0543,-0.0402 z m -2.77511,4.58873 -0.008,1.2e-4 c -0.53075,0 -1.01552,0.19555 -1.42908,0.56917 -0.41401,0.37382 -0.65192,0.89563 -0.71963,1.54414 l -0.0144,0.14644 h 0.16061 3.93014 l -0.0102,-0.14141 c -0.0311,-0.48592 -0.0902,-0.8306 -0.1991,-1.05832 v -4e-4 -4.8e-4 c -0.15918,-0.32617 -0.40229,-0.58831 -0.72191,-0.77612 -0.30757,-0.18416 -0.63931,-0.28007 -0.98404,-0.28231 z"
       inkscape:export-filename="../4c50d6c9/Lavarse_schrift_logo.png"
       inkscape:export-xdpi="300"
       inkscape:export-ydpi="300" />
  </g>
</svg>
